<svg xmlns="http://www.w3.org/2000/svg" xmlns:xlink="http://www.w3.org/1999/xlink" width="348" height="376.239" viewBox="0 0 348 376.239">
  <defs>
    <clipPath id="clip-path">
      <rect id="Rectangle_1623" data-name="Rectangle 1623" width="186.158" height="279.238" fill="none"/>
    </clipPath>
  </defs>
  <g id="Group_2143" data-name="Group 2143" transform="translate(-178 -1453)">
    <circle id="Ellipse_13" data-name="Ellipse 13" cx="174" cy="174" r="174" transform="translate(178 1453)" fill="#aeca66"/>
    <g id="Group_2129" data-name="Group 2129" transform="translate(255 1550)">
      <g id="Group_2128" data-name="Group 2128" transform="translate(0 0)" clip-path="url(#clip-path)">
        <path id="Path_1237" data-name="Path 1237" d="M183.25,133.8h-9.333l5.726-65.3.013-.039,1.521-17.386,2.029-23.181a11.637,11.637,0,0,0-10.578-12.6l-11.59-1.017a11.667,11.667,0,0,0-12.6,10.578l-2.029,23.181-1.521,17.386v.013L138.9,133.8H119.257V110.532a2.907,2.907,0,0,0,2.908-2.908V46.379a8.7,8.7,0,0,1,5.817,8.187v70.512a2.911,2.911,0,0,0,5.821,0V54.566a14.569,14.569,0,0,0-11.638-14.249v-2.5a2.91,2.91,0,0,0-2.908-2.908h-2.908V23.272a14.544,14.544,0,0,0-29.088,0V34.905H84.352a2.91,2.91,0,0,0-2.908,2.908v69.81a2.907,2.907,0,0,0,2.908,2.908V133.8h-.991L60.2,2.4A2.913,2.913,0,0,0,56.824.043L2.405,9.643A2.912,2.912,0,0,0,.044,13.013L13.16,87.476a3.034,3.034,0,0,0,.1.4L16.21,104.62a.228.228,0,0,0,0,.056l.022.06,3.012,17.1v.034l.013.034,2.094,11.9H8.726a2.907,2.907,0,0,0-2.908,2.908V165.8a2.907,2.907,0,0,0,2.908,2.908h3.2L23.285,276.636a2.906,2.906,0,0,0,2.9,2.6H165.8a2.905,2.905,0,0,0,2.891-2.6l11.362-107.929h3.2a2.907,2.907,0,0,0,2.908-2.908V136.711a2.907,2.907,0,0,0-2.908-2.908m-31.3-82.361,23.172,2.025-1.013,11.59-23.172-2.029Zm2.275-26.081a5.848,5.848,0,0,1,6.3-5.291l11.59,1.017a5.818,5.818,0,0,1,5.291,6.3l-1.775,20.281-23.181-2.025Zm-3.8,43.462L173.6,70.853l-5.524,62.95H144.743ZM93.077,23.272a8.727,8.727,0,0,1,17.455,0V34.905H93.077Zm-5.817,17.45h29.088v63.993H87.261Zm2.908,69.81H113.44V133.8H90.169ZM25.478,123.721,39.8,121.2a2.91,2.91,0,0,0-1.013-5.731L24.47,117.99l-2.016-11.461,8.583-1.512a2.909,2.909,0,0,0-1.008-5.731L21.445,100.8,19.429,89.341l14.3-2.521a2.91,2.91,0,1,0-1.013-5.731L18.39,83.619,16.37,72.158l8.6-1.517a2.91,2.91,0,1,0-1.013-5.731l-8.6,1.521L13.345,54.971l14.326-2.525a2.909,2.909,0,1,0-1.008-5.731L12.332,49.24,10.316,37.783l8.6-1.517A2.907,2.907,0,1,0,17.9,30.541l-8.6,1.512L6.279,14.87,54.971,6.282,77.454,133.8h-50.2Zm137.7,149.7H28.8L17.774,168.708H174.2Zm17.162-110.531H11.634V139.62H180.342Z" transform="translate(-0.001 -0.001)" fill="#3d3d3d"/>
        <path id="Path_1238" data-name="Path 1238" d="M26.019,102.728H90.012a14.562,14.562,0,0,0,14.546-14.542V59.1A14.562,14.562,0,0,0,90.012,44.556H26.019A14.558,14.558,0,0,0,11.477,59.1V88.186a14.558,14.558,0,0,0,14.542,14.542M17.294,59.1a8.733,8.733,0,0,1,8.725-8.725H90.012A8.733,8.733,0,0,1,98.737,59.1V88.186a8.733,8.733,0,0,1-8.725,8.725H26.019a8.733,8.733,0,0,1-8.725-8.725Z" transform="translate(37.974 147.422)" fill="#3d3d3d"/>
      </g>
    </g>
  </g>
</svg>
